<svg version="1" xmlns="http://www.w3.org/2000/svg" width="346.667" height="346.667" viewBox="0 0 260.000000 260.000000"><path d="M112 .8c0 .5-2.6 1.3-5.7 1.7-7.4.8-24.1 6.4-33.5 11-17.6 8.8-35.8 24.1-47.6 40C14.8 67.4 4.1 92.3 2.5 106.2c-.4 3.2-1.1 5.8-1.6 5.8-1.5 0-1 25.8.6 36.6 1.4 9.7 7.6 30.9 9.5 32.8.6.6 1 1.7 1 2.6 0 .9.9 2.5 2 3.5s2 2.7 2 3.7c0 5.5 20.4 30.4 33.5 40.8 14.3 11.4 45.3 25.8 50.8 23.7.8-.3 1.8-.2 2.3.2.5.5 3.5 1.6 6.7 2.6 8.4 2.6 35 1.6 49.7-1.8 24.2-5.7 42.6-15.8 61.2-33.5 26.1-24.8 39.8-57.9 39.8-96.1 0-8.3-.4-15.1-.9-15.1-.4 0-1.1-2.4-1.4-5.3-.3-2.8-2-9.7-3.7-15.2-14.7-45.9-52.3-79.4-100-89.2-8.8-1.8-42-3-42-1.5z"/></svg>