<?xml version="1.0" standalone="no"?>
<!DOCTYPE svg PUBLIC "-//W3C//DTD SVG 20010904//EN"
 "http://www.w3.org/TR/2001/REC-SVG-20010904/DTD/svg10.dtd">
<svg version="1.0" xmlns="http://www.w3.org/2000/svg"
 width="260.000000pt" height="260.000000pt" viewBox="0 0 260.000000 260.000000"
 preserveAspectRatio="xMidYMid meet">
<metadata>
Created by potrace 1.11, written by Peter Selinger 2001-2013
</metadata>
<g transform="translate(0.000000,260.000000) scale(0.100000,-0.100000)"
fill="#000000" stroke="none">
<path d="M1111 2142 c-101 -185 -187 -341 -191 -345 -3 -4 -49 71 -101 167
-52 97 -96 176 -99 176 -3 0 -36 -58 -74 -128 -38 -70 -154 -281 -256 -469
l-188 -343 110 0 c84 0 109 -3 105 -13 -3 -6 -52 -97 -110 -202 l-104 -190
223 -3 224 -2 0 -85 0 -85 -225 0 c-124 0 -225 -3 -225 -6 0 -15 94 -136 160
-207 176 -189 416 -322 683 -379 135 -28 371 -31 497 -5 268 56 480 168 666
352 93 92 194 215 194 236 0 5 -100 9 -225 9 l-225 0 0 85 0 85 225 0 c124 0
225 2 225 4 0 2 -49 93 -109 202 l-109 199 109 5 109 5 -178 325 c-98 179
-213 389 -256 468 -43 78 -81 140 -86 137 -4 -3 -49 -81 -101 -175 -51 -93
-94 -169 -95 -167 -4 3 -229 412 -314 570 -35 64 -66 117 -69 117 -3 0 -89
-152 -190 -338z m99 -1437 l0 -85 -212 2 -213 3 -3 83 -3 82 216 0 215 0 0
-85z m608 3 l-3 -83 -212 -3 -213 -2 0 85 0 85 215 0 216 0 -3 -82z"/>
</g>
</svg>
