<?xml version="1.0"?>
<svg xmlns="http://www.w3.org/2000/svg" xmlns:xlink="http://www.w3.org/1999/xlink" version="1.1" id="Capa_1" x="0px" y="0px" viewBox="0 0 512 512" style="enable-background:new 0 0 512 512;" xml:space="preserve" width="512px" height="512px" class=""><g><g>
	<g>
		<path style="fill:#5C717A" d="M35.31,450.207h52.966v34.269c0,5.451-4.419,9.869-9.869,9.869H45.18    c-5.451,0-9.869-4.419-9.869-9.869V450.207z" data-original="#285680" class="" data-old_color="#5c717a"/>
		<path style="fill:#5C717A" d="M423.724,450.207h52.966v34.269c0,5.451-4.419,9.869-9.869,9.869h-33.227    c-5.451,0-9.869-4.419-9.869-9.869V450.207z" data-original="#285680" class="" data-old_color="#5c717a"/>
	</g>
	<path style="fill:#778F9B" d="M26.483,17.655h459.034c14.626,0,26.483,11.857,26.483,26.483v388.414   c0,14.626-11.857,26.483-26.483,26.483H26.483C11.857,459.034,0,447.178,0,432.552V44.138C0,29.512,11.857,17.655,26.483,17.655z" data-original="#4482C3" class="" data-old_color="#778f9b"/>
	<path style="fill:#90A4AE" d="M476.69,61.793v353.103c0,4.875-3.952,8.828-8.828,8.828H44.138c-4.875,0-8.828-3.952-8.828-8.828   V61.793c0-4.875,3.952-8.828,8.828-8.828h423.724C472.737,52.966,476.69,56.918,476.69,61.793z" data-original="#B0D3F0" class="" data-old_color="#90a4ae"/>
	<g>
		<path style="fill:#5C717A" d="M291.31,150.069h17.655c4.875,0,8.828,3.952,8.828,8.828v17.655c0,4.875-3.952,8.828-8.828,8.828    H291.31c-4.875,0-8.828-3.952-8.828-8.828v-17.655C282.483,154.021,286.435,150.069,291.31,150.069z" data-original="#285680" class="" data-old_color="#5c717a"/>
		<path style="fill:#5C717A" d="M353.103,150.069h17.655c4.875,0,8.828,3.952,8.828,8.828v17.655c0,4.875-3.952,8.828-8.828,8.828    h-17.655c-4.875,0-8.828-3.952-8.828-8.828v-17.655C344.276,154.021,348.228,150.069,353.103,150.069z" data-original="#285680" class="" data-old_color="#5c717a"/>
		<path style="fill:#5C717A" d="M414.897,150.069h17.655c4.875,0,8.828,3.952,8.828,8.828v17.655c0,4.875-3.952,8.828-8.828,8.828    h-17.655c-4.875,0-8.828-3.952-8.828-8.828v-17.655C406.069,154.021,410.021,150.069,414.897,150.069z" data-original="#285680" class="" data-old_color="#5c717a"/>
		<path style="fill:#5C717A" d="M291.31,220.69h17.655c4.875,0,8.828,3.952,8.828,8.828v17.655c0,4.875-3.952,8.828-8.828,8.828    H291.31c-4.875,0-8.828-3.952-8.828-8.828v-17.655C282.483,224.642,286.435,220.69,291.31,220.69z" data-original="#285680" class="" data-old_color="#5c717a"/>
		<path style="fill:#5C717A" d="M353.103,220.69h17.655c4.875,0,8.828,3.952,8.828,8.828v17.655c0,4.875-3.952,8.828-8.828,8.828    h-17.655c-4.875,0-8.828-3.952-8.828-8.828v-17.655C344.276,224.642,348.228,220.69,353.103,220.69z" data-original="#285680" class="" data-old_color="#5c717a"/>
		<path style="fill:#5C717A" d="M414.897,220.69h17.655c4.875,0,8.828,3.952,8.828,8.828v17.655c0,4.875-3.952,8.828-8.828,8.828    h-17.655c-4.875,0-8.828-3.952-8.828-8.828v-17.655C406.069,224.642,410.021,220.69,414.897,220.69z" data-original="#285680" class="" data-old_color="#5c717a"/>
		<path style="fill:#5C717A" d="M291.31,291.31h17.655c4.875,0,8.828,3.952,8.828,8.828v17.655c0,4.875-3.952,8.828-8.828,8.828    H291.31c-4.875,0-8.828-3.952-8.828-8.828v-17.655C282.483,295.263,286.435,291.31,291.31,291.31z" data-original="#285680" class="" data-old_color="#5c717a"/>
		<path style="fill:#5C717A" d="M353.103,291.31h17.655c4.875,0,8.828,3.952,8.828,8.828v17.655c0,4.875-3.952,8.828-8.828,8.828    h-17.655c-4.875,0-8.828-3.952-8.828-8.828v-17.655C344.276,295.263,348.228,291.31,353.103,291.31z" data-original="#285680" class="" data-old_color="#5c717a"/>
		<path style="fill:#5C717A" d="M414.897,291.31h17.655c4.875,0,8.828,3.952,8.828,8.828v17.655c0,4.875-3.952,8.828-8.828,8.828    h-17.655c-4.875,0-8.828-3.952-8.828-8.828v-17.655C406.069,295.263,410.021,291.31,414.897,291.31z" data-original="#285680" class="" data-old_color="#5c717a"/>
	</g>
	<circle style="fill:#90A4AE" cx="158.897" cy="238.345" r="61.793" data-original="#A5A5A4" class="" data-old_color="#90a4ae"/>
	<path style="fill:#D2DADE" d="M238.345,229.517h-9.437c-0.787-6.374-2.441-12.611-4.917-18.538l8.121-4.696   c2.754-1.566,4.458-4.487,4.464-7.655c0.007-3.168-1.684-6.096-4.431-7.674c-2.747-1.578-6.129-1.563-8.861,0.039l-8.218,4.74   c-3.884-5.102-8.439-9.657-13.542-13.542l4.74-8.218c1.602-2.733,1.617-6.114,0.039-8.861c-1.578-2.747-4.506-4.438-7.674-4.431   c-3.168,0.007-6.089,1.711-7.655,4.464l-4.696,8.121c-5.926-2.476-12.163-4.13-18.538-4.917v-9.454   c0-4.875-3.952-8.828-8.828-8.828c-4.875,0-8.828,3.952-8.828,8.828v9.437c-6.374,0.787-12.611,2.441-18.538,4.917l-4.696-8.121   c-1.566-2.754-4.487-4.458-7.655-4.464c-3.168-0.007-6.096,1.684-7.674,4.431c-1.578,2.747-1.563,6.129,0.039,8.861l4.74,8.218   c-5.102,3.884-9.657,8.439-13.542,13.542l-8.218-4.74c-2.733-1.602-6.114-1.617-8.861-0.039c-2.747,1.578-4.438,4.506-4.431,7.674   c0.007,3.168,1.711,6.089,4.464,7.655l8.121,4.696c-2.476,5.926-4.13,12.163-4.917,18.538h-9.472c-4.875,0-8.828,3.952-8.828,8.828   c0,4.875,3.952,8.828,8.828,8.828h9.437c0.787,6.374,2.441,12.611,4.917,18.538l-8.121,4.696c-2.754,1.566-4.458,4.487-4.464,7.655   c-0.007,3.168,1.684,6.096,4.431,7.674c2.747,1.578,6.129,1.563,8.861-0.039l8.218-4.74c3.884,5.102,8.439,9.657,13.542,13.542   l-4.74,8.219c-1.602,2.733-1.617,6.114-0.039,8.861c1.578,2.747,4.506,4.438,7.674,4.431c3.168-0.007,6.089-1.711,7.655-4.464   l4.696-8.121c5.926,2.476,12.163,4.13,18.538,4.917v9.472c0,4.875,3.952,8.828,8.828,8.828c4.875,0,8.828-3.952,8.828-8.828v-9.437   c6.374-0.787,12.611-2.441,18.538-4.917l4.696,8.121c1.566,2.754,4.487,4.458,7.655,4.465c3.168,0.007,6.096-1.684,7.674-4.431   c1.578-2.747,1.563-6.129-0.039-8.861l-4.74-8.218c5.102-3.884,9.657-8.439,13.542-13.542l8.219,4.74   c2.733,1.602,6.114,1.617,8.861,0.039c2.747-1.578,4.438-4.506,4.431-7.674s-1.711-6.089-4.464-7.655l-8.121-4.696   c2.476-5.926,4.13-12.163,4.917-18.538h9.472c4.875,0,8.828-3.952,8.828-8.828c0-4.875-3.952-8.828-8.828-8.828V229.517z    M158.897,291.31c-29.252,0-52.966-23.713-52.966-52.965s23.713-52.966,52.966-52.966s52.966,23.713,52.966,52.966   C211.833,267.585,188.137,291.281,158.897,291.31z" data-original="#5E5F62" class="active-path" data-old_color="#d2dade"/>
</g></g> </svg>
