<?xml version="1.0"?>
<svg xmlns="http://www.w3.org/2000/svg" xmlns:xlink="http://www.w3.org/1999/xlink" version="1.1" id="Layer_1" x="0px" y="0px" viewBox="0 0 509.287 509.287" style="enable-background:new 0 0 509.287 509.287;" xml:space="preserve" width="72px" height="72px" class=""><g><circle style="fill:#FAFAFA" cx="254.644" cy="254.644" r="254.644" data-original="#F0582F" class="" data-old_color="#fafafa"/><path style="fill:#4CAF50" d="M369.25,120.371H140.037c-10.85,0-19.666,8.816-19.666,19.666V369.25  c0,10.85,8.816,19.666,19.666,19.666H369.25c10.85,0,19.666-8.816,19.666-19.666V140.037  C388.917,129.187,380.101,120.371,369.25,120.371z" data-original="#646B79" class="" data-old_color="#4caf50"/><path style="fill:#37474F" d="M331.952,164.111H177.335c-7.46,0-13.224,6.103-13.224,13.224v154.278  c0,7.46,6.103,13.224,13.224,13.224h154.278c7.46,0,13.224-6.103,13.224-13.224V177.335  C345.176,170.215,339.073,164.111,331.952,164.111z" data-original="#4F5565" class="" data-old_color="#37474f"/><g>
	<rect x="40.011" y="164.111" style="fill:#FF9800" width="80.36" height="22.718" data-original="#F1F3F7" class="active-path" data-old_color="#ff9800"/>
	<rect x="40.011" y="217.007" style="fill:#FF9800" width="80.36" height="22.718" data-original="#F1F3F7" class="active-path" data-old_color="#ff9800"/>
	<rect x="40.011" y="269.563" style="fill:#FF9800" width="80.36" height="22.718" data-original="#F1F3F7" class="active-path" data-old_color="#ff9800"/>
	<rect x="40.011" y="322.458" style="fill:#FF9800" width="80.36" height="22.718" data-original="#F1F3F7" class="active-path" data-old_color="#ff9800"/>
	<rect x="388.917" y="164.111" style="fill:#FF9800" width="80.36" height="22.718" data-original="#F1F3F7" class="active-path" data-old_color="#ff9800"/>
	<rect x="388.917" y="217.007" style="fill:#FF9800" width="80.36" height="22.718" data-original="#F1F3F7" class="active-path" data-old_color="#ff9800"/>
	<rect x="388.917" y="269.563" style="fill:#FF9800" width="80.36" height="22.718" data-original="#F1F3F7" class="active-path" data-old_color="#ff9800"/>
	<rect x="388.917" y="322.458" style="fill:#FF9800" width="80.36" height="22.718" data-original="#F1F3F7" class="active-path" data-old_color="#ff9800"/>
	<rect x="164.111" y="388.917" style="fill:#FF9800" width="22.718" height="80.36" data-original="#F1F3F7" class="active-path" data-old_color="#ff9800"/>
	<rect x="217.007" y="388.917" style="fill:#FF9800" width="22.718" height="80.36" data-original="#F1F3F7" class="active-path" data-old_color="#ff9800"/>
	<rect x="269.563" y="388.917" style="fill:#FF9800" width="22.718" height="80.36" data-original="#F1F3F7" class="active-path" data-old_color="#ff9800"/>
	<rect x="322.458" y="388.917" style="fill:#FF9800" width="22.718" height="80.36" data-original="#F1F3F7" class="active-path" data-old_color="#ff9800"/>
	<rect x="164.111" y="40.011" style="fill:#FF9800" width="22.718" height="80.36" data-original="#F1F3F7" class="active-path" data-old_color="#ff9800"/>
	<rect x="217.007" y="40.011" style="fill:#FF9800" width="22.718" height="80.36" data-original="#F1F3F7" class="active-path" data-old_color="#ff9800"/>
	<rect x="269.563" y="40.011" style="fill:#FF9800" width="22.718" height="80.36" data-original="#F1F3F7" class="active-path" data-old_color="#ff9800"/>
	<rect x="322.458" y="40.011" style="fill:#FF9800" width="22.718" height="80.36" data-original="#F1F3F7" class="active-path" data-old_color="#ff9800"/>
</g></g> </svg>
