<svg version="1" xmlns="http://www.w3.org/2000/svg" width="933.333" height="933.333" viewBox="0 0 700.000000 700.000000"><path d="M606.8.5c-.2.2-4.8.6-10.3.9-5.5.4-11.6.9-13.5 1.1-12.6 1.4-26.9 3.3-30 4-1.3.2-4.2.7-6.5 1.1-7.6 1.1-15.4 2.7-33.5 7-21.2 5.1-55.9 16.4-71.7 23.5-2.4 1-4.5 1.9-4.7 1.9-2.2 0-40.8 19.2-53.9 26.8-21.5 12.4-46.3 29.1-62.2 41.9-.5.5-3 2.4-5.5 4.3s-4.9 4-5.5 4.6c-.5.5-6.2 5.6-12.5 11.1-19.7 17.3-46.1 45.3-60.6 64.3-2.7 3.5-5.9 7.6-7.1 9-1.3 1.4-2.3 2.8-2.3 3.3 0 1.3-4.1 2.4-11.4 3.1-12.5 1.2-43.3 8.4-52 12.1-1.7.7-5.8 2.4-9.1 3.6-19 7.1-40.6 19.4-60 34-7.1 5.4-24.3 21.1-29.7 27.2-2.9 3.2-6.4 7.1-7.7 8.6-16.4 18.3-35.4 51-43.6 75.1-1.4 4.1-3 8.4-3.5 9.5-2.3 4.8-10.4 42.2-9.4 43.3.1.2 4.5-3.9 9.7-9.1 18-17.9 37.8-31.2 64.2-42.8 2.7-1.2 17.7-6.6 19-6.8.6-.1 2.6-.6 4.5-1.1 1.9-.5 5.1-1.2 7-1.5 1.9-.3 5.1-1 7-1.5 5.9-1.5 12.6-2.1 33.3-3.4 2.1-.1 4 .1 4.3.5.2.4-1.3 7.2-3.5 15.1-2.2 7.9-4.7 17.7-5.6 21.8-1.6 6.9-2 7.6-5.4 9.4-11.2 5.7-30.2 20.5-40.7 31.7-29.7 31.8-46.4 72.5-47.8 116.8l-.2 7.4 11-.6c6.1-.4 12.9-.9 15.1-1.1l4-.5-5.1 10.7c-7.3 15.2-12.8 31.9-15 46.2-1.3 8.6-2.2 15.8-2.4 20-.1 2.5-.3 6.4-.4 8.7-.1 3.3.2 4.3 1.4 4.4 2.8.1 14.5-.3 17-.6 1.4-.1 5.4-.6 9-1 15.1-1.6 37.2-8.4 52.6-16l10.2-5.1-.4 4.5c-.2 2.5-.6 6-.9 7.8-.8 5.1-.8 16.3-.1 17.1.7.6 15.7.4 20.6-.3 1.4-.2 4.5-.7 7-1 18.3-2.5 34.5-7.5 54-16.8 10-4.7 27.5-16.6 37-25.2 14.5-13 29.7-31.5 36.2-44.3 1.2-2.3 2.6-4.2 3.2-4.3.6 0 1.8-.2 2.6-.4s2.4-.6 3.5-.8c13.3-3.1 17.5-4.2 26.3-6.8 5.6-1.6 10.6-2.7 11.1-2.5.5.3.7 2.5.5 4.8-.9 13.9-1.5 21.7-1.9 24.3-8 46.9-25.5 80.8-58.5 113.3-4.2 4.2-6.6 7.2-5.5 6.9 1.1-.3 3.6-.8 5.5-1.1 9.4-1.4 12.3-2 23-4.7 49-12.5 87.8-36.4 125-76.8 9.1-9.9 22.1-28.4 30-42.6 4.2-7.5 6.2-11.6 13.1-27 3.6-8.2 11.1-32.5 12.4-40.5.3-1.9 1.2-6.2 2-9.5.7-3.3 1.6-8.7 1.9-12 1-10.1 1.4-11 6.4-14.6 22.7-16.3 58-49.3 78.6-73.4 3.8-4.4 7.9-9.2 9.2-10.7 4.6-5.4 21.1-27.5 28-37.8 21.5-31.8 40-67.5 54.2-105 7.7-20.2 18.8-58 20.8-71 .3-1.9.7-3.7.9-4 .7-1.1 5.5-29.5 6.1-36 .3-3.6.8-6.7.9-7 .2-.3.6-4.4 1-9 .4-4.7.9-9.6 1.2-11 .3-1.4.7-25.8 1-54.3l.5-51.8-46.6.2c-25.6.1-46.7.3-46.8.4z"/></svg>